<svg width="1600" height="320" viewBox="0 0 1600 320" fill="none" xmlns="http://www.w3.org/2000/svg">
  <defs>
    <linearGradient id="rootStroke" x1="0" y1="0" x2="1600" y2="0" gradientUnits="userSpaceOnUse">
      <stop offset="0" stop-color="#4a3424"/>
      <stop offset="0.22" stop-color="#6b4b32"/>
      <stop offset="0.5" stop-color="#8d6843"/>
      <stop offset="0.78" stop-color="#63462e"/>
      <stop offset="1" stop-color="#3f2e22"/>
    </linearGradient>
    <linearGradient id="sapGlow" x1="0" y1="0" x2="1600" y2="0" gradientUnits="userSpaceOnUse">
      <stop offset="0" stop-color="#5c85b4" stop-opacity="0"/>
      <stop offset="0.18" stop-color="#9ec2ea" stop-opacity="0.24"/>
      <stop offset="0.5" stop-color="#d5e7ff" stop-opacity="0.36"/>
      <stop offset="0.82" stop-color="#8db2dd" stop-opacity="0.22"/>
      <stop offset="1" stop-color="#5c85b4" stop-opacity="0"/>
    </linearGradient>
    <filter id="softGlow" x="-8%" y="-20%" width="116%" height="160%">
      <feGaussianBlur stdDeviation="3.5" result="blur"/>
      <feMerge>
        <feMergeNode in="blur"/>
        <feMergeNode in="SourceGraphic"/>
      </feMerge>
    </filter>
  </defs>

  <g opacity="0.9">
    <path d="M8 194C89 184 109 142 170 137C242 131 274 190 351 190C419 190 448 129 512 125C579 121 603 182 676 186C754 190 770 105 851 104C935 103 950 186 1027 192C1107 198 1139 143 1210 141C1286 139 1321 203 1396 199C1476 195 1505 135 1592 132" stroke="url(#rootStroke)" stroke-width="18" stroke-linecap="round"/>
    <path d="M35 211C91 201 111 168 155 165C213 161 232 210 294 209C350 208 372 162 425 158C482 153 498 202 555 206C621 211 636 144 701 143C770 142 781 214 842 216C909 218 931 162 992 160C1052 158 1068 212 1130 216C1199 221 1214 152 1288 150C1366 148 1386 221 1451 218C1523 214 1544 160 1588 156" stroke="#241711" stroke-opacity="0.64" stroke-width="26" stroke-linecap="round"/>
    <path d="M14 198C93 187 111 145 171 141C242 136 271 194 349 194C418 194 446 133 511 129C578 126 602 186 675 190C754 194 772 109 851 108C932 108 950 191 1026 196C1106 201 1137 147 1209 145C1285 143 1322 206 1397 203C1477 199 1507 140 1591 137" stroke="url(#sapGlow)" stroke-width="6" stroke-linecap="round" filter="url(#softGlow)"/>
  </g>

  <g opacity="0.85">
    <path d="M72 176C66 144 52 120 33 102C20 89 13 70 13 44" stroke="url(#rootStroke)" stroke-width="8" stroke-linecap="round"/>
    <path d="M105 181C109 149 124 127 146 111C165 98 176 79 182 47" stroke="url(#rootStroke)" stroke-width="7" stroke-linecap="round"/>
    <path d="M224 189C228 156 245 141 268 126C286 114 295 93 297 66" stroke="url(#rootStroke)" stroke-width="6" stroke-linecap="round"/>
    <path d="M478 182C486 154 506 139 531 126C552 115 565 96 572 72" stroke="url(#rootStroke)" stroke-width="6" stroke-linecap="round"/>
    <path d="M653 184C645 159 626 147 603 137C583 128 571 114 563 92" stroke="url(#rootStroke)" stroke-width="6" stroke-linecap="round"/>
    <path d="M817 157C822 127 840 104 864 84C889 64 900 42 903 18" stroke="url(#rootStroke)" stroke-width="8" stroke-linecap="round"/>
    <path d="M790 161C784 135 769 119 748 107C726 94 713 79 704 58" stroke="url(#rootStroke)" stroke-width="6" stroke-linecap="round"/>
    <path d="M975 188C984 158 1002 139 1025 124C1044 111 1056 91 1062 67" stroke="url(#rootStroke)" stroke-width="6" stroke-linecap="round"/>
    <path d="M1182 193C1174 161 1159 141 1135 123C1116 109 1102 91 1093 66" stroke="url(#rootStroke)" stroke-width="6" stroke-linecap="round"/>
    <path d="M1378 203C1388 169 1408 149 1431 131C1449 118 1460 101 1467 78" stroke="url(#rootStroke)" stroke-width="7" stroke-linecap="round"/>
    <path d="M1536 191C1545 155 1561 131 1582 113C1593 103 1598 91 1599 73" stroke="url(#rootStroke)" stroke-width="8" stroke-linecap="round"/>
  </g>

  <g opacity="0.58">
    <path d="M340 210C333 235 319 251 298 267C283 278 273 290 269 306" stroke="#4a3424" stroke-width="5" stroke-linecap="round"/>
    <path d="M551 222C557 245 570 261 591 275C607 286 617 297 622 311" stroke="#4a3424" stroke-width="5" stroke-linecap="round"/>
    <path d="M1036 211C1030 236 1015 254 994 269C980 279 970 291 966 307" stroke="#4a3424" stroke-width="5" stroke-linecap="round"/>
    <path d="M1298 218C1305 243 1318 260 1338 274C1354 284 1363 296 1368 310" stroke="#4a3424" stroke-width="5" stroke-linecap="round"/>
  </g>
</svg>
