<svg width="1600" height="120" viewBox="0 0 1600 120" fill="none" xmlns="http://www.w3.org/2000/svg">
  <defs>
    <linearGradient id="rootBrown" x1="0" y1="0" x2="1600" y2="0" gradientUnits="userSpaceOnUse">
      <stop offset="0" stop-color="#31231b"/>
      <stop offset="0.18" stop-color="#6a4b33"/>
      <stop offset="0.5" stop-color="#8b6643"/>
      <stop offset="0.82" stop-color="#65492f"/>
      <stop offset="1" stop-color="#2e211a"/>
    </linearGradient>
    <linearGradient id="rootGlow" x1="0" y1="0" x2="1600" y2="0" gradientUnits="userSpaceOnUse">
      <stop offset="0" stop-color="#90b3db" stop-opacity="0"/>
      <stop offset="0.22" stop-color="#c6ddf7" stop-opacity="0.15"/>
      <stop offset="0.5" stop-color="#e0eeff" stop-opacity="0.24"/>
      <stop offset="0.78" stop-color="#b4cde9" stop-opacity="0.14"/>
      <stop offset="1" stop-color="#90b3db" stop-opacity="0"/>
    </linearGradient>
  </defs>

  <path d="M48 60C294 56 525 55 792 54C1056 53 1297 54 1552 49" stroke="#221914" stroke-opacity="0.72" stroke-width="30" stroke-linecap="round"/>
  <path d="M52 56C296 52 528 51 792 50C1054 49 1294 50 1548 45" stroke="url(#rootBrown)" stroke-width="13" stroke-linecap="round"/>
  <path d="M52 56C296 52 528 51 792 50C1054 49 1294 50 1548 45" stroke="url(#rootGlow)" stroke-width="4" stroke-linecap="round"/>

  <path d="M154 52C142 33 124 20 100 12" stroke="url(#rootBrown)" stroke-width="5" stroke-linecap="round"/>
  <path d="M306 53C317 35 336 23 359 17" stroke="url(#rootBrown)" stroke-width="4" stroke-linecap="round"/>
  <path d="M556 50C547 31 529 20 506 14" stroke="url(#rootBrown)" stroke-width="4" stroke-linecap="round"/>
  <path d="M812 49C823 30 842 18 865 12" stroke="url(#rootBrown)" stroke-width="4" stroke-linecap="round"/>
  <path d="M1084 49C1074 29 1054 18 1030 11" stroke="url(#rootBrown)" stroke-width="4" stroke-linecap="round"/>
  <path d="M1328 49C1339 30 1360 18 1385 13" stroke="url(#rootBrown)" stroke-width="4" stroke-linecap="round"/>

  <path d="M242 58C234 76 219 89 198 97" stroke="url(#rootBrown)" stroke-width="4" stroke-linecap="round"/>
  <path d="M680 54C689 73 705 85 725 91" stroke="url(#rootBrown)" stroke-width="4" stroke-linecap="round"/>
  <path d="M1188 53C1179 72 1162 84 1140 91" stroke="url(#rootBrown)" stroke-width="4" stroke-linecap="round"/>
  <path d="M1452 47C1461 65 1477 77 1497 84" stroke="url(#rootBrown)" stroke-width="4" stroke-linecap="round"/>
</svg>
