<svg width="1600" height="420" viewBox="0 0 1600 420" fill="none" xmlns="http://www.w3.org/2000/svg">
  <defs>
    <linearGradient id="rootMain" x1="0" y1="0" x2="1600" y2="0" gradientUnits="userSpaceOnUse">
      <stop offset="0" stop-color="#3e2a1f"/>
      <stop offset="0.18" stop-color="#6c4c34"/>
      <stop offset="0.5" stop-color="#8c6542"/>
      <stop offset="0.82" stop-color="#63462f"/>
      <stop offset="1" stop-color="#35261d"/>
    </linearGradient>
    <linearGradient id="rootGlow" x1="0" y1="0" x2="1600" y2="0" gradientUnits="userSpaceOnUse">
      <stop offset="0" stop-color="#8aaed7" stop-opacity="0"/>
      <stop offset="0.2" stop-color="#b9d6f5" stop-opacity="0.18"/>
      <stop offset="0.5" stop-color="#dbeafe" stop-opacity="0.28"/>
      <stop offset="0.8" stop-color="#a8c7e8" stop-opacity="0.16"/>
      <stop offset="1" stop-color="#8aaed7" stop-opacity="0"/>
    </linearGradient>
    <filter id="glow" x="-10%" y="-10%" width="120%" height="120%">
      <feGaussianBlur stdDeviation="3" result="blur"/>
      <feMerge>
        <feMergeNode in="blur"/>
        <feMergeNode in="SourceGraphic"/>
      </feMerge>
    </filter>
  </defs>

  <g opacity="0.96">
    <path d="M86 70C172 36 268 23 372 24H1228C1334 24 1429 36 1514 70" stroke="#261b17" stroke-width="44" stroke-linecap="round"/>
    <path d="M88 351C170 384 266 397 372 396H1228C1336 396 1431 384 1512 351" stroke="#261b17" stroke-width="40" stroke-linecap="round"/>
    <path d="M67 89C44 144 33 206 33 272" stroke="#261b17" stroke-width="32" stroke-linecap="round"/>
    <path d="M1533 89C1557 144 1568 206 1567 272" stroke="#261b17" stroke-width="32" stroke-linecap="round"/>
  </g>

  <g>
    <path d="M92 64C176 32 270 20 372 20H1228C1332 20 1426 32 1508 64" stroke="url(#rootMain)" stroke-width="18" stroke-linecap="round"/>
    <path d="M92 356C176 388 270 400 372 400H1228C1332 400 1426 388 1508 356" stroke="url(#rootMain)" stroke-width="16" stroke-linecap="round"/>
    <path d="M64 94C39 149 26 209 26 270" stroke="url(#rootMain)" stroke-width="14" stroke-linecap="round"/>
    <path d="M1536 94C1561 149 1574 209 1574 270" stroke="url(#rootMain)" stroke-width="14" stroke-linecap="round"/>

    <path d="M92 64C176 32 270 20 372 20H1228C1332 20 1426 32 1508 64" stroke="url(#rootGlow)" stroke-width="5" stroke-linecap="round" filter="url(#glow)"/>
    <path d="M92 356C176 388 270 400 372 400H1228C1332 400 1426 388 1508 356" stroke="url(#rootGlow)" stroke-width="4" stroke-linecap="round" filter="url(#glow)"/>

    <path d="M172 58C162 37 142 22 118 12" stroke="url(#rootMain)" stroke-width="7" stroke-linecap="round"/>
    <path d="M252 38C250 17 258 4 280 -8" stroke="url(#rootMain)" stroke-width="6" stroke-linecap="round"/>
    <path d="M356 24C347 4 326 -10 297 -18" stroke="url(#rootMain)" stroke-width="6" stroke-linecap="round"/>
    <path d="M520 20C530 -1 551 -15 577 -23" stroke="url(#rootMain)" stroke-width="6" stroke-linecap="round"/>
    <path d="M694 20C687 0 672 -14 651 -24" stroke="url(#rootMain)" stroke-width="5" stroke-linecap="round"/>
    <path d="M903 20C912 -2 935 -16 963 -24" stroke="url(#rootMain)" stroke-width="6" stroke-linecap="round"/>
    <path d="M1090 20C1082 3 1064 -11 1041 -21" stroke="url(#rootMain)" stroke-width="5" stroke-linecap="round"/>
    <path d="M1261 31C1267 10 1285 -5 1312 -17" stroke="url(#rootMain)" stroke-width="6" stroke-linecap="round"/>
    <path d="M1417 51C1425 28 1447 13 1476 5" stroke="url(#rootMain)" stroke-width="7" stroke-linecap="round"/>

    <path d="M166 363C153 382 133 396 108 404" stroke="url(#rootMain)" stroke-width="7" stroke-linecap="round"/>
    <path d="M332 394C321 414 303 427 278 435" stroke="url(#rootMain)" stroke-width="6" stroke-linecap="round"/>
    <path d="M535 398C544 420 565 434 590 442" stroke="url(#rootMain)" stroke-width="6" stroke-linecap="round"/>
    <path d="M794 399C787 419 773 433 753 442" stroke="url(#rootMain)" stroke-width="5" stroke-linecap="round"/>
    <path d="M995 397C1005 419 1025 434 1052 443" stroke="url(#rootMain)" stroke-width="6" stroke-linecap="round"/>
    <path d="M1222 389C1215 410 1198 425 1174 435" stroke="url(#rootMain)" stroke-width="6" stroke-linecap="round"/>
    <path d="M1417 365C1427 385 1448 399 1475 407" stroke="url(#rootMain)" stroke-width="7" stroke-linecap="round"/>

    <path d="M56 132C33 121 15 104 5 81" stroke="url(#rootMain)" stroke-width="7" stroke-linecap="round"/>
    <path d="M38 205C18 201 2 190 -12 170" stroke="url(#rootMain)" stroke-width="6" stroke-linecap="round"/>
    <path d="M31 294C10 300 -8 313 -20 334" stroke="url(#rootMain)" stroke-width="7" stroke-linecap="round"/>
    <path d="M1544 132C1567 121 1585 104 1595 81" stroke="url(#rootMain)" stroke-width="7" stroke-linecap="round"/>
    <path d="M1562 205C1582 201 1598 190 1612 170" stroke="url(#rootMain)" stroke-width="6" stroke-linecap="round"/>
    <path d="M1569 294C1590 300 1608 313 1620 334" stroke="url(#rootMain)" stroke-width="7" stroke-linecap="round"/>

    <path d="M114 53C147 67 186 64 219 48" stroke="#ab8151" stroke-opacity="0.3" stroke-width="4" stroke-linecap="round"/>
    <path d="M1378 49C1410 63 1448 64 1482 52" stroke="#ab8151" stroke-opacity="0.28" stroke-width="4" stroke-linecap="round"/>
    <path d="M112 366C148 349 188 347 223 360" stroke="#ab8151" stroke-opacity="0.24" stroke-width="4" stroke-linecap="round"/>
    <path d="M1378 368C1411 353 1450 349 1485 360" stroke="#ab8151" stroke-opacity="0.24" stroke-width="4" stroke-linecap="round"/>
  </g>
</svg>
