<svg width="1600" height="120" viewBox="0 0 1600 120" fill="none" xmlns="http://www.w3.org/2000/svg">
  <defs>
    <linearGradient id="barkBase" x1="22" y1="58" x2="1560" y2="58" gradientUnits="userSpaceOnUse">
      <stop offset="0" stop-color="#2a1d16"/>
      <stop offset="0.18" stop-color="#4d3525"/>
      <stop offset="0.46" stop-color="#7b5638"/>
      <stop offset="0.7" stop-color="#8f6742"/>
      <stop offset="0.86" stop-color="#60412b"/>
      <stop offset="1" stop-color="#241813"/>
    </linearGradient>
    <linearGradient id="barkWarm" x1="90" y1="34" x2="1474" y2="40" gradientUnits="userSpaceOnUse">
      <stop offset="0" stop-color="#d5ab73" stop-opacity="0.52"/>
      <stop offset="0.2" stop-color="#eec48f" stop-opacity="0.8"/>
      <stop offset="0.52" stop-color="#f7d6a7" stop-opacity="0.88"/>
      <stop offset="0.78" stop-color="#d4a16c" stop-opacity="0.58"/>
      <stop offset="1" stop-color="#b07d52" stop-opacity="0.34"/>
    </linearGradient>
    <linearGradient id="barkShadow" x1="112" y1="76" x2="1488" y2="82" gradientUnits="userSpaceOnUse">
      <stop offset="0" stop-color="#17100d" stop-opacity="0.84"/>
      <stop offset="0.4" stop-color="#2a1b14" stop-opacity="0.62"/>
      <stop offset="1" stop-color="#130d0b" stop-opacity="0.82"/>
    </linearGradient>
    <linearGradient id="mossMain" x1="240" y1="18" x2="1270" y2="70" gradientUnits="userSpaceOnUse">
      <stop offset="0" stop-color="#58791f"/>
      <stop offset="0.4" stop-color="#7ea537"/>
      <stop offset="0.72" stop-color="#98c14a"/>
      <stop offset="1" stop-color="#4a6718"/>
    </linearGradient>
    <linearGradient id="mossShade" x1="246" y1="72" x2="1160" y2="24" gradientUnits="userSpaceOnUse">
      <stop offset="0" stop-color="#294211" stop-opacity="0.95"/>
      <stop offset="0.48" stop-color="#395a17" stop-opacity="0.84"/>
      <stop offset="1" stop-color="#20310c" stop-opacity="0.9"/>
    </linearGradient>
    <filter id="shadow" x="0" y="0" width="1600" height="120" filterUnits="userSpaceOnUse" color-interpolation-filters="sRGB">
      <feDropShadow dx="0" dy="4" stdDeviation="3.5" flood-color="#090707" flood-opacity="0.36"/>
    </filter>
    <clipPath id="logClip">
      <path d="M24 59C49 47 91 43 158 44C230 44 286 49 372 50C471 52 565 49 676 48C786 47 898 48 1010 47C1113 47 1194 46 1288 45C1360 44 1451 42 1508 43C1528 43 1544 47 1554 53C1566 60 1566 66 1553 72C1538 79 1503 82 1448 82C1381 83 1309 79 1226 79C1108 79 1009 82 901 82C786 82 696 80 592 78C474 76 376 79 280 79C203 79 144 77 95 74C53 72 27 67 19 62C16 60 18 59 24 59Z"/>
    </clipPath>
  </defs>

  <g filter="url(#shadow)">
    <path d="M24 59C49 47 91 43 158 44C230 44 286 49 372 50C471 52 565 49 676 48C786 47 898 48 1010 47C1113 47 1194 46 1288 45C1360 44 1451 42 1508 43C1528 43 1544 47 1554 53C1566 60 1566 66 1553 72C1538 79 1503 82 1448 82C1381 83 1309 79 1226 79C1108 79 1009 82 901 82C786 82 696 80 592 78C474 76 376 79 280 79C203 79 144 77 95 74C53 72 27 67 19 62C16 60 18 59 24 59Z" fill="#17100d"/>
    <path d="M28 57C54 47 95 44 160 45C232 45 288 49 373 51C471 53 565 50 676 49C786 48 897 49 1009 48C1112 48 1193 47 1288 46C1360 45 1450 43 1506 44C1526 44 1541 48 1549 54C1558 60 1557 65 1548 70C1536 76 1503 79 1447 80C1381 81 1309 78 1225 78C1107 78 1008 81 901 81C786 81 696 79 592 77C474 75 376 78 280 78C203 78 144 76 97 73C57 71 32 66 25 61C22 59 23 58 28 57Z" fill="url(#barkBase)"/>
    <path d="M54 51C171 50 262 53 372 54C478 56 575 53 684 52C812 50 925 52 1045 51C1162 50 1291 48 1491 47" stroke="url(#barkWarm)" stroke-width="5" stroke-linecap="round"/>
    <path d="M54 72C160 72 245 70 347 70C465 70 586 72 715 73C872 74 995 74 1127 72C1240 71 1334 73 1492 73" stroke="url(#barkShadow)" stroke-width="8" stroke-linecap="round"/>

    <g clip-path="url(#logClip)">
      <path d="M44 51C120 38 178 35 263 37C345 39 423 44 512 45C602 46 692 42 788 41C900 40 1016 44 1130 42C1244 41 1354 35 1512 38L1512 26L42 30Z" fill="url(#mossMain)" fill-opacity="0.72"/>
      <path d="M88 56C149 42 220 38 286 40C365 42 425 48 505 50C587 52 668 49 756 48C849 47 948 49 1034 48C1146 47 1260 42 1397 42L1395 34C1261 33 1145 37 1034 39C943 40 850 39 759 40C663 41 580 44 491 42C420 41 348 35 274 33C213 31 149 34 97 46Z" fill="url(#mossShade)" fill-opacity="0.82"/>

      <path d="M82 54C116 51 147 50 181 50" stroke="#efc68f" stroke-opacity="0.36" stroke-width="3" stroke-linecap="round" stroke-dasharray="18 18 9 20"/>
      <path d="M228 56C288 54 334 54 390 55" stroke="#5e3d27" stroke-opacity="0.52" stroke-width="4" stroke-linecap="round" stroke-dasharray="24 16 10 18 22 14"/>
      <path d="M420 58C500 57 572 55 652 55" stroke="#e7bc87" stroke-opacity="0.3" stroke-width="3" stroke-linecap="round" stroke-dasharray="18 16 12 24 16 24"/>
      <path d="M696 57C760 56 824 55 886 55" stroke="#472c1e" stroke-opacity="0.52" stroke-width="4" stroke-linecap="round" stroke-dasharray="20 14 9 17 23 17"/>
      <path d="M948 55C1015 53 1088 53 1160 54" stroke="#e9c996" stroke-opacity="0.28" stroke-width="3" stroke-linecap="round" stroke-dasharray="16 22 10 18 24 17"/>
      <path d="M1210 54C1270 53 1330 52 1398 52" stroke="#563625" stroke-opacity="0.48" stroke-width="4" stroke-linecap="round" stroke-dasharray="20 16 10 22 18 14"/>

      <path d="M116 46C148 42 171 41 198 42" stroke="#a4cc4f" stroke-opacity="0.95" stroke-width="5" stroke-linecap="round" stroke-dasharray="12 18 10 22"/>
      <path d="M268 44C309 41 347 42 390 44" stroke="#8eb442" stroke-opacity="0.9" stroke-width="5" stroke-linecap="round" stroke-dasharray="16 16 10 26 8 16"/>
      <path d="M516 46C564 45 601 46 640 47" stroke="#6c962b" stroke-opacity="0.92" stroke-width="5" stroke-linecap="round" stroke-dasharray="12 24 12 18 10 22"/>
      <path d="M724 43C770 42 813 43 854 45" stroke="#a8d159" stroke-opacity="0.88" stroke-width="4.6" stroke-linecap="round" stroke-dasharray="12 16 10 18 12 26"/>
      <path d="M964 44C1010 43 1052 43 1098 44" stroke="#76a130" stroke-opacity="0.88" stroke-width="4.8" stroke-linecap="round" stroke-dasharray="18 20 10 18 10 24"/>
      <path d="M1210 42C1250 41 1295 42 1338 44" stroke="#91b946" stroke-opacity="0.82" stroke-width="4.6" stroke-linecap="round" stroke-dasharray="14 20 12 18 10 20"/>

      <ellipse cx="166" cy="61" rx="38" ry="11" fill="#251712" fill-opacity="0.32"/>
      <ellipse cx="438" cy="62" rx="28" ry="8" fill="#2a1a14" fill-opacity="0.26"/>
      <ellipse cx="812" cy="60" rx="33" ry="9" fill="#1f140f" fill-opacity="0.28"/>
      <ellipse cx="1112" cy="60" rx="25" ry="8" fill="#2c1b15" fill-opacity="0.24"/>
      <ellipse cx="1360" cy="58" rx="32" ry="9" fill="#1e130f" fill-opacity="0.3"/>
    </g>
  </g>

</svg>
